# xmcd
#
# Track frame offsets: 
#        150
#        10304
#        23435
#        37159
#        48717
#        58769
#        71456
#        85500
#        97270
#        110001
#        122024
#        142886
#        155477
#        169498
#        185158
#        198696
#        213028
#        225207
#        235880
#        248166
#        263270
#        274774
#        288490
#        302940
#        315995
#
# Disc length: 4375 seconds
#
# Revision: 0
# Processed by: cddbd v1.5.2PL0 Copyright (c) Steve Scherf et al.
# Submitted via: ExactAudioCopy v1.0b1
#
DISCID=61111519
DTITLE=Various Artist - Blues: The Vintage Collection 
DYEAR=2015
DGENRE=Blues
TTITLE0=Dimples - John Lee Hooker
TTITLE1=Baby, Won’t You Please Come Home - Ray Charles
TTITLE2=Get Back - Big Bill Broonzy
TTITLE3=Baby Please Don’t Go - Mose Allison
TTITLE4=All Night Long (All Night Boogie) - Howlin’ Wolf
TTITLE5=The Sky Is Crying - Elmore James
TTITLE6=Mean To Me - Billie Holiday
TTITLE7=If I Had Possession Over Judgement Day - Robert Johnson
TTITLE8=Mistreated Woman - B.B. King
TTITLE9=Shotgun Blues - Lightnin’ Hopkins
TTITLE10=I Got To Cross The River Jordan - Blind Willie McTell
TTITLE11=Bright Lights, Big City - Jimmy Reed
TTITLE12=I’m Still In Love With You - T-Bone Walker
TTITLE13=Taint Nobody’s Business If I Do - Bessie Smith
TTITLE14=Farther Up The Road - Bobby Blue Bland
TTITLE15=Reconsider Baby - Lowell Fulson
TTITLE16=I’m In The Mood - John Lee Hooker
TTITLE17=(I Must Have) Done Somebody Wrong - Elmore James
TTITLE18=Double Trouble - Otis Rush
TTITLE19=Dark Was The Night - Cold Was The Ground - Blind Willie Johns
TTITLE19=on
TTITLE20=Rock Island Line - Lead Belly
TTITLE21=Duncan And Brady - Dave Van Ronk
TTITLE22=Junker’s Blues - Champion Jack Dupree
TTITLE23=Down The Dirt Road Blues - Charley Patton
TTITLE24=My Babe - Little Walter
EXTD=
EXTT0=
EXTT1=
EXTT2=
EXTT3=
EXTT4=
EXTT5=
EXTT6=
EXTT7=
EXTT8=
EXTT9=
EXTT10=
EXTT11=
EXTT12=
EXTT13=
EXTT14=
EXTT15=
EXTT16=
EXTT17=
EXTT18=
EXTT19=
EXTT20=
EXTT21=
EXTT22=
EXTT23=
EXTT24=
PLAYORDER=
